#!OML:ASF E:\Steps\Project 1\Capture day 1\Session 2\Subject.ASF
:FULLY-SPECIFIED
:DEGREES
645
root 12.2748 18.0835 17.1183 -152.364 1.48153 176.561
lowerback -26.6025 -1.64944 -4.31609
upperback -0.29086 -0.537575 0.418054
thorax 14.6994 -0.428732 2.81021
lowerneck -0.369464 -2.69559 -0.46573
upperneck 25.5811 -0.942429 -0.499846
head 7.9425 0.431301 -0.0153343
rclavicle 4.47266e-015 1.07344e-014
rhumerus -40.2214 -12.2186 -80.0053
rradius 40.381
rwrist -7.80856
rhand -10.2055 -50.4366
rfingers 7.12502
rthumb 15.7858 -79.8129
lclavicle 4.47266e-015 1.07344e-014
lhumerus -33.6767 3.61941 77.8017
lradius 29.4766
lwrist -3.23587
lhand -22.1241 -13.8176
lfingers 7.12502
lthumb 4.28895 16.119
rfemur -27.134 0.79162 20.9843
rtibia 9.3395
rfoot -22.3958 -0.0909887
rtoes -27.4822
lfemur -28.3459 -11.5189 -21.758
ltibia 12.2185
lfoot -8.32972 -0.387329
ltoes -40.8067
646
root 12.2647 18.0843 17.1039 -152.486 1.40116 176.628
lowerback -26.6909 -1.61721 -4.32988
upperback -0.251251 -0.492747 0.446744
thorax 14.793 -0.415288 2.86903
lowerneck -0.269178 -2.66097 -0.295096
upperneck 25.6833 -0.807688 -0.739909
head 7.9565 0.505917 -0.112829
rclavicle 9.93923e-017 -6.36111e-015
rhumerus -40.334 -12.1169 -79.9011
rradius 40.373
rwrist -8.00093
rhand -10.1616 -50.7842
rfingers 7.12502
rthumb 15.828 -80.1572
lclavicle 9.93923e-017 -6.36111e-015
lhumerus -33.6656 3.56068 77.9214
lradius 29.4618
lwrist -3.27491
lhand -22.287 -14.0448
lfingers 7.12502
lthumb 4.1316 15.8948
rfemur -26.9754 0.742535 21.0289
rtibia 9.40747
rfoot -22.779 0.132374
rtoes -26.333
lfemur -28.0485 -11.5007 -21.7855
ltibia 12.0187
lfoot -8.36599 -0.445331
ltoes -41.6156
647
root 12.255 18.0823 17.0927 -152.525 1.37156 176.66
lowerback -26.4992 -1.6316 -4.3392
upperback -0.396462 -0.51334 0.480873
thorax 14.5146 -0.412406 2.90659
lowerneck -0.285637 -2.93011 -0.645239
upperneck 25.771 -1.19645 -0.553652
head 7.99425 0.307187 -0.0166097
rclavicle -6.26172e-015 1.11319e-014
rhumerus -40.5001 -12.1604 -79.6896
rradius 40.088
rwrist -7.76708
rhand -9.84951 -50.9403
rfingers 7.12502
rthumb 16.1286 -80.2892
lclavicle -6.26172e-015 1.11319e-014
lhumerus -33.9498 3.54975 78.0101
lradius 29.525
lwrist -3.26212
lhand -22.5376 -14.0913
lfingers 7.12502
lthumb 3.88962 15.8529
rfemur -26.9249 0.841583 20.9654
rtibia 9.45933
rfoot -22.3245 0.122272
rtoes -26.5593
lfemur -27.8991 -11.5748 -21.7876
ltibia 11.8846
lfoot -8.24191 -0.397981
ltoes -40.9268
648
root 12.2481 18.0827 17.0844 -152.598 1.28337 176.657
lowerback -26.6093 -1.67128 -4.35137
upperback -0.296716 -0.559679 0.455464
thorax 14.6991 -0.442499 2.86579
lowerneck -0.418835 -2.74132 -0.566085
upperneck 25.7838 -0.921818 -0.643825
head 8.02099 0.433861 -0.042279
rclavicle 2.08724e-015 -3.57812e-015
rhumerus -40.4493 -12.3879 -79.5698
rradius 39.8596
rwrist -7.38501
rhand -9.57963 -50.6423
rfingers 7.12502
rthumb 16.3884 -79.97
lclavicle 2.08724e-015 -3.57812e-015
lhumerus -33.795 3.60202 77.985
lradius 29.5051
lwrist -3.17721
lhand -22.6587 -14.0686
lfingers 7.12502
lthumb 3.77271 15.8778
rfemur -26.7968 1.16408 20.8295
rtibia 9.43694
rfoot -21.8059 -0.200717
rtoes -26.4063
lfemur -27.7599 -11.6549 -21.7943
ltibia 11.8167
lfoot -8.10096 -0.431382
ltoes -40.0584
649
root 12.2429 18.0838 17.08 -152.601 1.16874 176.654
lowerback -26.7584 -1.68877 -4.35457
upperback -0.250858 -0.561704 0.378518
thorax 14.8367 -0.443657 2.77743
lowerneck -0.278344 -2.58413 -0.26189
upperneck 25.7418 -0.667159 -0.818165
head 7.97788 0.574787 -0.134189
rclavicle -1.78906e-015 -1.31198e-014
rhumerus -40.7999 -12.3312 -79.5767
rradius 40.0685
rwrist -7.46516
rhand -9.74035 -50.543
rfingers 7.12502
rthumb 16.2337 -79.8833
lclavicle -1.78906e-015 -1.31198e-014
lhumerus -33.6288 3.50393 77.9095
lradius 29.3689
lwrist -3.25426
lhand -22.9065 -14.1137
lfingers 7.12502
lthumb 3.53338 15.8367
rfemur -26.7957 1.37848 20.7557
rtibia 9.52297
rfoot -21.6259 -0.379324
rtoes -25.2437
lfemur -27.7367 -11.6394 -21.8147
ltibia 11.8248
lfoot -8.0492 -0.576288
ltoes -40.1423
